<?xml version="1.0" encoding="UTF-8" standalone="no"?>
<svg width="400" height="400" xmlns="http://www.w3.org/2000/svg">
  <rect width="100%" height="100%" fill="#ffffff" />
  <path d="M200.00,50.00 A150.00,150.00 0 0,1 231.19,53.28 L200.00,200.00 Z" fill=" #0e0e0c" />
  <path d="M231.19,53.28 A150.00,150.00 0 0,1 261.01,62.97 L200.00,200.00 Z" fill="#0f0f0d" />
  <path d="M261.01,62.97 A150.00,150.00 0 0,1 288.17,78.65 L200.00,200.00 Z" fill="#10100e" />
  <path d="M288.17,78.65 A150.00,150.00 0 0,1 311.47,99.63 L200.00,200.00 Z" fill="#0d0d0b" />
  <path d="M311.47,99.63 A150.00,150.00 0 0,1 329.90,125.00 L200.00,200.00 Z" fill="#e42338" />
  <path d="M329.90,125.00 A150.00,150.00 0 0,1 342.66,153.65 L200.00,200.00 Z" fill="#e52439" />
  <path d="M342.66,153.65 A150.00,150.00 0 0,1 349.18,184.32 L200.00,200.00 Z" fill="#e32235" />
  <path d="M349.18,184.32 A150.00,150.00 0 0,1 349.18,215.68 L200.00,200.00 Z" fill="#0c0c0a" />
  <path d="M349.18,215.68 A150.00,150.00 0 0,1 342.66,246.35 L200.00,200.00 Z" fill="#11110f" />
  <path d="M342.66,246.35 A150.00,150.00 0 0,1 329.90,275.00 L200.00,200.00 Z" fill="#e62538" />
  <path d="M329.90,275.00 A150.00,150.00 0 0,1 311.47,300.37 L200.00,200.00 Z" fill="#0b0d0c" />
  <path d="M311.47,300.37 A150.00,150.00 0 0,1 288.17,321.35 L200.00,200.00 Z" fill="#e72639" />
  <path d="M288.17,321.35 A150.00,150.00 0 0,1 261.01,337.03 L200.00,200.00 Z" fill="#090b08" />
  <path d="M261.01,337.03 A150.00,150.00 0 0,1 231.19,346.72 L200.00,200.00 Z" fill="#e2222f" />
  <path d="M231.19,346.72 A150.00,150.00 0 0,1 200.00,350.00 L200.00,200.00 Z" fill="#0b0b09" />
  <path d="M200.00,350.00 A150.00,150.00 0 0,1 168.81,346.72 L200.00,200.00 Z" fill="#e22134" />
  <path d="M168.81,346.72 A150.00,150.00 0 0,1 138.99,337.03 L200.00,200.00 Z" fill="#0a0a08" />
  <path d="M138.99,337.03 A150.00,150.00 0 0,1 111.83,321.35 L200.00,200.00 Z" fill="#121210" />
  <path d="M111.83,321.35 A150.00,150.00 0 0,1 88.53,300.37 L200.00,200.00 Z" fill="#d21c29" />
  <path d="M88.53,300.37 A150.00,150.00 0 0,1 70.10,275.00 L200.00,200.00 Z" fill="#e1212e" />
  <path d="M70.10,275.00 A150.00,150.00 0 0,1 57.34,246.35 L200.00,200.00 Z" fill="#d31d2a" />
  <path d="M57.34,246.35 A150.00,150.00 0 0,1 50.82,215.68 L200.00,200.00 Z" fill="#cb1925" />
  <path d="M50.82,215.68 A150.00,150.00 0 0,1 50.82,184.32 L200.00,200.00 Z" fill="#ca1824" />
  <path d="M50.82,184.32 A150.00,150.00 0 0,1 57.34,153.65 L200.00,200.00 Z" fill="#c91723" />
  <path d="M57.34,153.65 A150.00,150.00 0 0,1 70.10,125.00 L200.00,200.00 Z" fill="#e5253a" />
</svg>
